<?xml version="1.0" encoding="UTF-8" standalone="no"?>
<!-- Created with Inkscape (http://www.inkscape.org/) -->

<svg
   xmlns:dc="http://purl.org/dc/elements/1.1/"
   xmlns:cc="http://creativecommons.org/ns#"
   xmlns:rdf="http://www.w3.org/1999/02/22-rdf-syntax-ns#"
   xmlns:svg="http://www.w3.org/2000/svg"
   xmlns="http://www.w3.org/2000/svg"
   xmlns:xlink="http://www.w3.org/1999/xlink"
   xmlns:sodipodi="http://sodipodi.sourceforge.net/DTD/sodipodi-0.dtd"
   xmlns:inkscape="http://www.inkscape.org/namespaces/inkscape"
   id="svg2"
   sodipodi:version="0.32"
   inkscape:version="0.48.2 r9819"
   width="530"
   height="530"
   version="1.0"
   sodipodi:docname="Mr_Pipo_thoughts.svg"
   inkscape:output_extension="org.inkscape.output.svg.inkscape"
   inkscape:export-filename="C:\Documents and Settings\Nevit\Desktop\pipo2.png"
   inkscape:export-xdpi="424.64789"
   inkscape:export-ydpi="424.64789">
  <metadata
     id="metadata7">
    <rdf:RDF>
      <cc:Work
         rdf:about="">
        <dc:format>image/svg+xml</dc:format>
        <dc:type
           rdf:resource="http://purl.org/dc/dcmitype/StillImage" />
        <dc:title></dc:title>
      </cc:Work>
    </rdf:RDF>
  </metadata>
  <defs
     id="defs5">
    <inkscape:path-effect
       effect="skeletal"
       id="path-effect3013"
       is_visible="true"
       pattern="M 0,5 C 0,2.24 2.24,0 5,0 7.76,0 10,2.24 10,5 10,7.76 7.76,10 5,10 2.24,10 0,7.76 0,5 z"
       copytype="single_stretched"
       prop_scale="1"
       scale_y_rel="false"
       spacing="0"
       normal_offset="0"
       tang_offset="0"
       prop_units="false"
       vertical_pattern="false"
       fuse_tolerance="0" />
    <inkscape:perspective
       sodipodi:type="inkscape:persp3d"
       inkscape:vp_x="0 : 0.5 : 1"
       inkscape:vp_y="0 : 1000 : 0"
       inkscape:vp_z="1 : 0.5 : 1"
       inkscape:persp3d-origin="0.5 : 0.33333333 : 1"
       id="perspective9" />
  </defs>
  <sodipodi:namedview
     inkscape:window-height="838"
     inkscape:window-width="1440"
     inkscape:pageshadow="2"
     inkscape:pageopacity="1"
     guidetolerance="10.0"
     gridtolerance="10.0"
     objecttolerance="10.0"
     borderopacity="1.0"
     bordercolor="#666666"
     pagecolor="#ffffff"
     id="base"
     showgrid="false"
     inkscape:zoom="0.71183071"
     inkscape:cx="124.19551"
     inkscape:cy="209.78752"
     inkscape:window-x="-8"
     inkscape:window-y="-8"
     inkscape:current-layer="layer1"
     inkscape:window-maximized="1"
     fit-margin-top="0"
     fit-margin-left="0"
     fit-margin-right="0"
     fit-margin-bottom="0" />
  <g
     inkscape:groupmode="layer"
     id="layer3"
     inkscape:label="Layer#1"
     transform="translate(14.46252,264.03336)" />
  <g
     inkscape:groupmode="layer"
     id="layer1"
     inkscape:label="12"
     style="display:inline"
     transform="translate(14.46252,264.03336)">
    <rect
       style="fill:#999999;fill-opacity:1;fill-rule:nonzero;stroke:none"
       id="rect5185"
       width="530"
       height="530"
       x="-14.46252"
       y="-264.03336"
       inkscape:export-xdpi="173.8868"
       inkscape:export-ydpi="173.8868" />
    <path
       style="fill:#2b0000"
       d="m 152.03184,271.34897 c -0.0999,-0.9625 -0.68405,-2.93946 -1.29812,-4.39324 -0.61408,-1.45378 -1.42192,-4.27125 -1.79521,-6.26104 -0.37329,-1.9898 -1.10166,-3.87921 -1.61861,-4.1987 -1.52472,-0.94234 -5.44432,-10.54936 -6.17748,-15.14118 -0.37271,-2.33429 -1.79776,-6.69295 -3.16677,-9.68592 -1.36902,-2.99297 -2.48912,-5.83845 -2.48912,-6.32329 0,-1.55572 -10.89739,-25.73259 -14.48645,-32.13952 -1.47432,-2.63186 -0.80898,-5.06894 2.8958,-10.60711 3.61522,-5.40428 15.01566,-17.50091 17.07568,-18.11844 1.10824,-0.33221 3.36497,-1.18675 5.01497,-1.89897 1.65,-0.71222 4.2375,-1.57074 5.75,-1.90782 1.5125,-0.33708 2.75,-1.08644 2.75,-1.66525 0,-0.57881 0.72016,-1.77253 1.60034,-2.65272 1.16912,-1.16911 1.43583,-2.62915 0.98981,-5.41838 -0.48522,-3.03444 -0.19326,-4.23531 1.42258,-5.85115 4.75954,-6.03868 -1.87273,-5.92422 3.10988,-10.15269 1.64279,-1.09077 2.11779,-2.41813 2.10129,-5.87197 -0.0354,-7.41845 0.49248,-8.74141 3.7761,-9.46261 4.09028,-0.89838 5.02013,-4.62893 2.1286,-8.53994 -1.17073,-1.58349 -2.1286,-3.09974 -2.1286,-3.36944 0,-0.26969 -1.35,-2.49068 -3,-4.93551 -3.35267,-4.96771 -3.76982,-7.42247 -1.4149,-8.32614 1.22567,-0.47033 1.43564,-1.42691 0.92602,-4.218612 -0.36249,-1.985697 -1.26195,-4.547756 -1.99879,-5.693464 -0.73685,-1.145708 -1.65037,-4.15463 -2.03005,-6.686493 -0.37967,-2.531863 -2.47778,-8.119465 -4.66244,-12.416894 -4.09964,-8.064327 -6.51879,-14.258605 -7.1282,-18.251882 -0.39616,-2.595877 -4.31085,-6.005907 -6.93316,-6.039389 -0.95784,-0.01223 -2.30359,-0.922236 -2.99055,-2.022236 -0.68696,-1.1 -1.93253,-2 -2.76793,-2 -0.8354,0 -2.08096,-0.9 -2.76793,-2 -1.04064,-1.666332 -2.33202,-2 -7.74054,-2 -3.57034,0 -6.49153,0.438444 -6.49153,0.97432 0,1.361842 -5.21371,3.852954 -6.84861,3.27227 -0.74174,-0.263449 -2.31674,-0.0138 -3.5,0.554772 -3.4603,1.662717 -8.779852,3.198638 -11.078252,3.198638 -2.96324,0 -17.11159,7.388007 -21.4673,11.209824 -3.55052,3.115325 -10.10584,11.084223 -10.10584,12.285049 0,0.33817 -0.85356,2.502666 -1.89679,4.809991 -1.04324,2.307325 -2.1173,5.871627 -2.3868,7.920673 -0.26949,2.049045 -1.41811,5.298587 -2.55249,7.221204 -3.91658,6.638116 -3.80558,11.348209 0.66942,28.406379 1.20308,4.58601 2.40526,6.88095 4.32207,8.25075 6.5914,4.71036 9.21896,13.76956 6.7859,23.39613 -0.55604,2.2 -1.15709,5.00039 -1.33568,6.22308 -0.32326,2.21329 -4.0634,7.37258 -13.59751,18.75694 -2.47781,2.78564 -4.29463,6.57197 -6.57475,9.57528 -5.11169,4.24232 -21.681747,37.13088 -26.302857,52.20641 -1.13997,3.71893 -2.60062,7.74818 -3.24588,8.95387 -2.27185,4.24499 -6.87971,24.68562 -6.88326,30.53442 l -0.0014,2.25 c 14.8419,-0.89167 139.387389,2.57364 139.545309,-1.75 z"
       id="path2699"
       sodipodi:nodetypes="cssssssssssssssccsssssssssssssssssssssssssssssccssccc"
       inkscape:connector-curvature="0" />
    <path
       sodipodi:type="arc"
       style="fill-opacity:1;fill-rule:nonzero;stroke:none"
       id="path3759"
       sodipodi:cx="-136.95316"
       sodipodi:cy="64.003235"
       sodipodi:rx="2.5234249"
       sodipodi:ry="2.5234249"
       d="m -134.42973,64.003235 c 0,1.393649 -1.12978,2.523425 -2.52343,2.523425 -1.39364,0 -2.52342,-1.129776 -2.52342,-2.523425 0,-1.393649 1.12978,-2.523425 2.52342,-2.523425 1.39365,0 2.52343,1.129776 2.52343,2.523425 z"
       transform="matrix(2.0909091,0,0,2.0909091,91.610232,-118.68439)"
       inkscape:tile-cx="-192.92731"
       inkscape:tile-cy="15.369957"
       inkscape:tile-w="10.552504"
       inkscape:tile-h="10.552504"
       inkscape:tile-x0="-198.20356"
       inkscape:tile-y0="10.093705" />
    <use
       x="0"
       y="0"
       inkscape:tiled-clone-of="#path3759"
       xlink:href="#path3759"
       transform="matrix(0.60769046,0,0,0.60769046,403.16228,-167.21252)"
       id="use4985"
       style="fill:#02d6ff;stroke:#02d6ff"
       width="215.63812"
       height="284.4588" />
    <use
       x="0"
       y="0"
       inkscape:tiled-clone-of="#path3759"
       xlink:href="#path3759"
       transform="matrix(0.68939657,0,0,0.68939657,391.67402,-56.695615)"
       id="use4987"
       style="fill:#b5ff50;stroke:#b5ff50"
       width="215.63812"
       height="284.4588" />
    <use
       x="0"
       y="0"
       inkscape:tiled-clone-of="#path3759"
       xlink:href="#path3759"
       transform="matrix(0.47606061,0,0,0.47606061,437.46126,-37.673365)"
       id="use4989"
       style="fill:#02ff7a;stroke:#02ff7a"
       width="215.63812"
       height="284.4588" />
    <use
       x="0"
       y="0"
       inkscape:tiled-clone-of="#path3759"
       xlink:href="#path3759"
       transform="matrix(0.91032899,0,0,0.91032899,554.33471,-32.497852)"
       id="use4991"
       style="fill:#ff3502;stroke:#ff3502"
       width="215.63812"
       height="284.4588" />
    <use
       x="0"
       y="0"
       inkscape:tiled-clone-of="#path3759"
       xlink:href="#path3759"
       transform="matrix(1.2791061,0,0,1.2791061,428.23223,-87.307416)"
       id="use4993"
       style="fill:#022bff;stroke:#022bff"
       width="215.63812"
       height="284.4588" />
    <use
       x="0"
       y="0"
       inkscape:tiled-clone-of="#path3759"
       xlink:href="#path3759"
       transform="matrix(0.90090641,0,0,0.90090641,413.66347,-125.44519)"
       id="use4995"
       style="fill:#0402ff;stroke:#0402ff"
       width="215.63812"
       height="284.4588" />
    <use
       x="0"
       y="0"
       inkscape:tiled-clone-of="#path3759"
       xlink:href="#path3759"
       transform="matrix(0.4389888,0,0,0.4389888,361.53126,-116.22805)"
       id="use4997"
       style="fill:#0293ff;stroke:#0293ff"
       width="215.63812"
       height="284.4588" />
    <use
       x="0"
       y="0"
       inkscape:tiled-clone-of="#path3759"
       xlink:href="#path3759"
       transform="matrix(1.3548198,0,0,1.3548198,451.2745,-3.6081152)"
       id="use4999"
       style="fill:#ff0278;stroke:#ff0278"
       width="215.63812"
       height="284.4588" />
    <use
       x="0"
       y="0"
       inkscape:tiled-clone-of="#path3759"
       xlink:href="#path3759"
       transform="matrix(0.83965484,0,0,0.83965484,549.13477,-148.64713)"
       id="use5001"
       style="fill:#02ff43;stroke:#02ff43"
       width="215.63812"
       height="284.4588" />
    <use
       x="0"
       y="0"
       inkscape:tiled-clone-of="#path3759"
       xlink:href="#path3759"
       transform="matrix(1.5473806,0,0,1.5473806,622.73618,-12.065516)"
       id="use5003"
       style="fill:#02ffb0;stroke:#02ffb0"
       width="215.63812"
       height="284.4588" />
    <use
       x="0"
       y="0"
       inkscape:tiled-clone-of="#path3759"
       xlink:href="#path3759"
       transform="matrix(0.67885593,0,0,0.67885593,481.94774,-132.61971)"
       id="use5005"
       style="fill:#ff021c;stroke:#ff021c"
       width="215.63812"
       height="284.4588" />
    <use
       x="0"
       y="0"
       inkscape:tiled-clone-of="#path3759"
       xlink:href="#path3759"
       transform="matrix(0.68058574,0,0,0.68058574,438.80868,18.057275)"
       id="use5007"
       style="fill:#ffa5ac;stroke:#ffa5ac"
       width="215.63812"
       height="284.4588" />
    <use
       x="0"
       y="0"
       inkscape:tiled-clone-of="#path3759"
       xlink:href="#path3759"
       transform="matrix(1.5422247,0,0,1.5422247,464.89131,28.343377)"
       id="use5009"
       style="fill:#fcff02;stroke:#fcff02"
       width="215.63812"
       height="284.4588" />
    <use
       x="0"
       y="0"
       inkscape:tiled-clone-of="#path3759"
       xlink:href="#path3759"
       transform="matrix(0.5053093,0,0,0.5053093,344.65025,-149.55376)"
       id="use5011"
       style="fill:#ff6602;stroke:#ff6602"
       width="215.63812"
       height="284.4588" />
    <use
       x="0"
       y="0"
       inkscape:tiled-clone-of="#path3759"
       xlink:href="#path3759"
       transform="matrix(0.54368643,0,0,0.54368643,427.32056,-56.538619)"
       id="use5013"
       style="fill:#03ff01;stroke:#03ff01"
       width="215.63812"
       height="284.4588" />
    <use
       x="0"
       y="0"
       inkscape:tiled-clone-of="#path3759"
       xlink:href="#path3759"
       transform="matrix(0.55486387,0,0,0.55486387,458.02629,-1.3874269)"
       id="use5015"
       style="fill:#ff8402;stroke:#ff8402"
       width="215.63812"
       height="284.4588" />
    <use
       x="0"
       y="0"
       inkscape:tiled-clone-of="#path3759"
       xlink:href="#path3759"
       transform="matrix(1.5350941,0,0,1.5350941,477.79026,42.113704)"
       id="use5017"
       style="fill:#6502ff;stroke:#6502ff"
       width="215.63812"
       height="284.4588" />
    <use
       x="0"
       y="0"
       inkscape:tiled-clone-of="#path3759"
       xlink:href="#path3759"
       transform="matrix(0.8416454,0,0,0.8416454,453.01146,-9.3464437)"
       id="use5019"
       style="fill:#ff0241;stroke:#ff0241"
       width="215.63812"
       height="284.4588" />
    <use
       x="0"
       y="0"
       inkscape:tiled-clone-of="#path3759"
       xlink:href="#path3759"
       transform="matrix(0.4250413,0,0,0.4250413,484.23893,-54.680124)"
       id="use5021"
       style="fill:#02ff55;stroke:#02ff55"
       width="215.63812"
       height="284.4588" />
    <use
       x="0"
       y="0"
       inkscape:tiled-clone-of="#path3759"
       xlink:href="#path3759"
       transform="matrix(1.3258326,0,0,1.3258326,423.14334,-53.430808)"
       id="use5023"
       style="fill:#02ff7d;stroke:#02ff7d"
       width="215.63812"
       height="284.4588" />
    <use
       x="0"
       y="0"
       inkscape:tiled-clone-of="#path3759"
       xlink:href="#path3759"
       transform="matrix(1.5789255,0,0,1.5789255,551.30224,-14.088837)"
       id="use5025"
       style="fill:#0258ff;stroke:#0258ff"
       width="215.63812"
       height="284.4588" />
    <use
       x="0"
       y="0"
       inkscape:tiled-clone-of="#path3759"
       xlink:href="#path3759"
       transform="matrix(0.66315637,0,0,0.66315637,339.58759,-135.45171)"
       id="use5027"
       style="fill:#ff5e02;stroke:#ff5e02"
       width="215.63812"
       height="284.4588" />
    <use
       x="0"
       y="0"
       inkscape:tiled-clone-of="#path3759"
       xlink:href="#path3759"
       transform="matrix(1.5903676,0,0,1.5903676,475.64803,-1.5947154)"
       id="use5029"
       style="fill:#3302ff;stroke:#3302ff"
       width="215.63812"
       height="284.4588" />
    <use
       x="0"
       y="0"
       inkscape:tiled-clone-of="#path3759"
       xlink:href="#path3759"
       transform="matrix(0.67099252,0,0,0.67099252,428.04497,-93.055169)"
       id="use5031"
       style="fill:#ff0231;stroke:#ff0231"
       width="215.63812"
       height="284.4588" />
    <use
       x="0"
       y="0"
       inkscape:tiled-clone-of="#path3759"
       xlink:href="#path3759"
       transform="matrix(0.88281308,0,0,0.88281308,470.85748,-35.797076)"
       id="use5033"
       style="fill:#0250ff;stroke:#0250ff"
       width="215.63812"
       height="284.4588" />
    <use
       x="0"
       y="0"
       inkscape:tiled-clone-of="#path3759"
       xlink:href="#path3759"
       transform="matrix(1.0640763,0,0,1.0640763,400.71481,-23.488653)"
       id="use5035"
       style="fill:#ff2502;stroke:#ff2502"
       width="215.63812"
       height="284.4588" />
    <use
       x="0"
       y="0"
       inkscape:tiled-clone-of="#path3759"
       xlink:href="#path3759"
       transform="matrix(1.0873255,0,0,1.0873255,431.15412,13.309268)"
       id="use5037"
       style="fill:#02ff20;stroke:#02ff20"
       width="215.63812"
       height="284.4588" />
    <use
       x="0"
       y="0"
       inkscape:tiled-clone-of="#path3759"
       xlink:href="#path3759"
       transform="matrix(0.97808424,0,0,0.97808424,524.92451,-89.95406)"
       id="use5039"
       style="fill:#02fff7;stroke:#02fff7"
       width="215.63812"
       height="284.4588" />
    <use
       x="0"
       y="0"
       inkscape:tiled-clone-of="#path3759"
       xlink:href="#path3759"
       transform="matrix(0.80942208,0,0,0.80942208,500.17114,-163.7548)"
       id="use5041"
       style="fill:#8802ff;stroke:#8802ff"
       width="215.63812"
       height="284.4588" />
    <use
       x="0"
       y="0"
       inkscape:tiled-clone-of="#path3759"
       xlink:href="#path3759"
       transform="matrix(0.88111976,0,0,0.88111976,373.8525,-106.28956)"
       id="use5043"
       style="fill:#ff02d2;stroke:#ff02d2"
       width="215.63812"
       height="284.4588" />
    <use
       x="0"
       y="0"
       inkscape:tiled-clone-of="#path3759"
       xlink:href="#path3759"
       transform="matrix(0.40430679,0,0,0.40430679,454.62666,-86.873657)"
       id="use5045"
       style="fill:#e802ff;stroke:#e802ff"
       width="215.63812"
       height="284.4588" />
    <use
       x="0"
       y="0"
       inkscape:tiled-clone-of="#path3759"
       xlink:href="#path3759"
       transform="matrix(1.2787651,0,0,1.2787651,442.30508,-63.158796)"
       id="use5047"
       style="fill:#02fffd;stroke:#02fffd"
       width="215.63812"
       height="284.4588" />
    <use
       x="0"
       y="0"
       inkscape:tiled-clone-of="#path3759"
       xlink:href="#path3759"
       transform="matrix(0.75880892,0,0,0.75880892,460.08158,-136.10209)"
       id="use5049"
       style="fill:#ffafb6;stroke:#ffafb6"
       width="215.63812"
       height="284.4588" />
    <use
       x="0"
       y="0"
       inkscape:tiled-clone-of="#path3759"
       xlink:href="#path3759"
       transform="matrix(0.45813793,0,0,0.45813793,376.12004,-59.936621)"
       id="use5051"
       style="fill:#02ff83;stroke:#02ff83"
       width="215.63812"
       height="284.4588" />
    <use
       x="0"
       y="0"
       inkscape:tiled-clone-of="#path3759"
       xlink:href="#path3759"
       transform="matrix(0.88928666,0,0,0.88928666,449.56768,17.957772)"
       id="use5053"
       style="fill:#13fff2;stroke:#13fff2"
       width="215.63812"
       height="284.4588" />
    <use
       x="0"
       y="0"
       inkscape:tiled-clone-of="#path3759"
       xlink:href="#path3759"
       transform="matrix(1.2658981,0,0,1.2658981,507.95167,-20.102167)"
       id="use5055"
       style="fill:#ff6802;stroke:#ff6802"
       width="215.63812"
       height="284.4588" />
    <use
       x="0"
       y="0"
       inkscape:tiled-clone-of="#path3759"
       xlink:href="#path3759"
       transform="matrix(1.1398715,0,0,1.1398715,409.02023,28.073979)"
       id="use5057"
       style="fill:#ff025c;stroke:#ff025c"
       width="215.63812"
       height="284.4588" />
    <use
       x="0"
       y="0"
       inkscape:tiled-clone-of="#path3759"
       xlink:href="#path3759"
       transform="matrix(1.2576447,0,0,1.2576447,448.61194,-83.220481)"
       id="use5059"
       style="fill:#ff4f56;stroke:#ff4f56"
       width="215.63812"
       height="284.4588" />
    <use
       x="0"
       y="0"
       inkscape:tiled-clone-of="#path3759"
       xlink:href="#path3759"
       transform="matrix(0.85993027,0,0,0.85993027,352.41653,-36.708144)"
       id="use5061"
       style="fill:#e6ff02;stroke:#e6ff02"
       width="215.63812"
       height="284.4588" />
    <use
       x="0"
       y="0"
       inkscape:tiled-clone-of="#path3759"
       xlink:href="#path3759"
       transform="matrix(1.0255317,0,0,1.0255317,346.08355,-44.273265)"
       id="use5063"
       style="fill:#ff025b;stroke:#ff025b"
       width="215.63812"
       height="284.4588" />
    <use
       x="0"
       y="0"
       inkscape:tiled-clone-of="#path3759"
       xlink:href="#path3759"
       transform="matrix(0.52137939,0,0,0.52137939,359.94269,-40.009491)"
       id="use5065"
       style="fill:#ff0236;stroke:#ff0236"
       width="215.63812"
       height="284.4588" />
    <use
       x="0"
       y="0"
       inkscape:tiled-clone-of="#path3759"
       xlink:href="#path3759"
       transform="matrix(1.3494087,0,0,1.3494087,631.29395,-77.22154)"
       id="use5067"
       style="fill:#025dff;stroke:#025dff"
       width="215.63812"
       height="284.4588" />
    <use
       x="0"
       y="0"
       inkscape:tiled-clone-of="#path3759"
       xlink:href="#path3759"
       transform="matrix(0.80732419,0,0,0.80732419,324.91944,-27.841374)"
       id="use5069"
       style="fill:#b502ff;stroke:#b502ff"
       width="215.63812"
       height="284.4588" />
    <use
       x="0"
       y="0"
       inkscape:tiled-clone-of="#path3759"
       xlink:href="#path3759"
       transform="matrix(1.3862684,0,0,1.3862684,410.65968,1.7132249)"
       id="use5071"
       style="fill:#f8ff0d;stroke:#f8ff0d"
       width="215.63812"
       height="284.4588" />
    <use
       x="0"
       y="0"
       inkscape:tiled-clone-of="#path3759"
       xlink:href="#path3759"
       transform="matrix(1.214527,0,0,1.214527,376.87725,-20.781235)"
       id="use5073"
       style="fill:#027cff;stroke:#027cff"
       width="215.63812"
       height="284.4588" />
    <use
       x="0"
       y="0"
       inkscape:tiled-clone-of="#path3759"
       xlink:href="#path3759"
       transform="matrix(0.96778376,0,0,0.96778376,365.60918,-60.290643)"
       id="use5075"
       style="fill:#ffbdc4;stroke:#ffbdc4"
       width="215.63812"
       height="284.4588" />
    <use
       x="0"
       y="0"
       inkscape:tiled-clone-of="#path3759"
       xlink:href="#path3759"
       transform="matrix(0.82627018,0,0,0.82627018,384.37553,-41.723455)"
       id="use5077"
       style="fill:#b902ff;stroke:#b902ff"
       width="215.63812"
       height="284.4588" />
    <use
       x="0"
       y="0"
       inkscape:tiled-clone-of="#path3759"
       xlink:href="#path3759"
       transform="matrix(1.552694,0,0,1.552694,510.24788,19.953315)"
       id="use5079"
       style="fill:#02ff73;stroke:#02ff73"
       width="215.63812"
       height="284.4588" />
    <use
       x="0"
       y="0"
       inkscape:tiled-clone-of="#path3759"
       xlink:href="#path3759"
       transform="matrix(1.1741704,0,0,1.1741704,392.44985,-12.988704)"
       id="use5081"
       style="fill:#02ff5f;stroke:#02ff5f"
       width="215.63812"
       height="284.4588" />
    <use
       x="0"
       y="0"
       inkscape:tiled-clone-of="#path3759"
       xlink:href="#path3759"
       transform="matrix(1.2446446,0,0,1.2446446,387.87852,51.63266)"
       id="use5083"
       style="fill:#02bbff;stroke:#02bbff"
       width="215.63812"
       height="284.4588" />
    <use
       x="0"
       y="0"
       inkscape:tiled-clone-of="#path3759"
       xlink:href="#path3759"
       transform="matrix(1.4584547,0,0,1.4584547,519.48908,-33.000332)"
       id="use5085"
       style="fill:#02ff23;stroke:#02ff23"
       width="215.63812"
       height="284.4588" />
    <use
       x="0"
       y="0"
       inkscape:tiled-clone-of="#path3759"
       xlink:href="#path3759"
       transform="matrix(1.180521,0,0,1.180521,452.89113,37.62489)"
       id="use5087"
       style="fill:#5f02ff;stroke:#5f02ff"
       width="215.63812"
       height="284.4588" />
    <use
       x="0"
       y="0"
       inkscape:tiled-clone-of="#path3759"
       xlink:href="#path3759"
       transform="matrix(1.2260006,0,0,1.2260006,361.74286,69.539197)"
       id="use5089"
       style="fill:#ff028c;stroke:#ff028c"
       width="215.63812"
       height="284.4588" />
    <use
       x="0"
       y="0"
       inkscape:tiled-clone-of="#path3759"
       xlink:href="#path3759"
       transform="matrix(0.41562035,0,0,0.41562035,349.44255,-17.75688)"
       id="use5091"
       style="fill:#ffe3ea;stroke:#ffe3ea"
       width="215.63812"
       height="284.4588" />
    <use
       x="0"
       y="0"
       inkscape:tiled-clone-of="#path3759"
       xlink:href="#path3759"
       transform="matrix(0.64239708,0,0,0.64239708,251.09635,36.675953)"
       id="use5093"
       style="fill:#af02ff;stroke:#af02ff"
       width="215.63812"
       height="284.4588" />
    <use
       x="0"
       y="0"
       inkscape:tiled-clone-of="#path3759"
       xlink:href="#path3759"
       transform="matrix(0.5092255,0,0,0.5092255,196.85462,80.419976)"
       id="use5095"
       style="fill:#020eff;stroke:#020eff"
       width="215.63812"
       height="284.4588" />
    <use
       x="0"
       y="0"
       inkscape:tiled-clone-of="#path3759"
       xlink:href="#path3759"
       transform="matrix(0.53679726,0,0,0.53679726,236.56289,58.755175)"
       id="use5097"
       style="fill:#022fff;stroke:#022fff"
       width="215.63812"
       height="284.4588" />
    <use
       x="0"
       y="0"
       inkscape:tiled-clone-of="#path3759"
       xlink:href="#path3759"
       transform="matrix(1.4058823,0,0,1.4058823,483.39253,-30.995699)"
       id="use5099"
       style="fill:#56ff02;stroke:#56ff02"
       width="215.63812"
       height="284.4588" />
    <use
       x="0"
       y="0"
       inkscape:tiled-clone-of="#path3759"
       xlink:href="#path3759"
       transform="matrix(1.3183311,0,0,1.3183311,522.54127,-88.572653)"
       id="use5101"
       style="fill:#84ff02;stroke:#84ff02"
       width="215.63812"
       height="284.4588" />
    <use
       x="0"
       y="0"
       inkscape:tiled-clone-of="#path3759"
       xlink:href="#path3759"
       transform="matrix(0.88085784,0,0,0.88085784,273.86075,87.627656)"
       id="use5103"
       style="fill:#02a6ff;stroke:#02a6ff"
       width="215.63812"
       height="284.4588" />
    <use
       x="0"
       y="0"
       inkscape:tiled-clone-of="#path3759"
       xlink:href="#path3759"
       transform="matrix(1.3800244,0,0,1.3800244,505.17754,5.18945)"
       id="use5105"
       style="fill:#02dfff;stroke:#02dfff"
       width="215.63812"
       height="284.4588" />
    <use
       x="0"
       y="0"
       inkscape:tiled-clone-of="#path3759"
       xlink:href="#path3759"
       transform="matrix(0.59871605,0,0,0.59871605,454.36434,-111.7516)"
       id="use5107"
       style="fill:#ff0287;stroke:#ff0287"
       width="215.63812"
       height="284.4588" />
    <use
       x="0"
       y="0"
       inkscape:tiled-clone-of="#path3759"
       xlink:href="#path3759"
       transform="matrix(0.92271563,0,0,0.92271563,371.53085,56.032935)"
       id="use5109"
       style="fill:#02ffb5;stroke:#02ffb5"
       width="215.63812"
       height="284.4588" />
    <use
       x="0"
       y="0"
       inkscape:tiled-clone-of="#path3759"
       xlink:href="#path3759"
       transform="matrix(1.1752273,0,0,1.1752273,458.52925,54.918174)"
       id="use5111"
       style="fill:#ff02c1;stroke:#ff02c1"
       width="215.63812"
       height="284.4588" />
    <use
       x="0"
       y="0"
       inkscape:tiled-clone-of="#path3759"
       xlink:href="#path3759"
       transform="matrix(1.104569,0,0,1.104569,453.98119,-77.487466)"
       id="use5113"
       style="fill:#ff02c7;stroke:#ff02c7"
       width="215.63812"
       height="284.4588" />
    <use
       x="0"
       y="0"
       inkscape:tiled-clone-of="#path3759"
       xlink:href="#path3759"
       transform="matrix(0.71781974,0,0,0.71781974,392.99251,-27.250563)"
       id="use5115"
       style="fill:#02feff;stroke:#02feff"
       width="215.63812"
       height="284.4588" />
    <use
       x="0"
       y="0"
       inkscape:tiled-clone-of="#path3759"
       xlink:href="#path3759"
       transform="matrix(0.82104238,0,0,0.82104238,439.50973,-41.643105)"
       id="use5117"
       style="fill:#3bffca;stroke:#3bffca"
       width="215.63812"
       height="284.4588" />
    <use
       x="0"
       y="0"
       inkscape:tiled-clone-of="#path3759"
       xlink:href="#path3759"
       transform="matrix(1.4288506,0,0,1.4288506,433.42107,13.661197)"
       id="use5119"
       style="fill:#ff636a;stroke:#ff636a"
       width="215.63812"
       height="284.4588" />
    <use
       x="0"
       y="0"
       inkscape:tiled-clone-of="#path3759"
       xlink:href="#path3759"
       transform="matrix(0.90786266,0,0,0.90786266,277.6943,45.002577)"
       id="use5121"
       style="fill:#02d3ff;stroke:#02d3ff"
       width="215.63812"
       height="284.4588" />
    <use
       x="0"
       y="0"
       inkscape:tiled-clone-of="#path3759"
       xlink:href="#path3759"
       transform="matrix(1.0224957,0,0,1.0224957,281.15659,61.101443)"
       id="use5123"
       style="fill:#0266ff;stroke:#0266ff"
       width="215.63812"
       height="284.4588" />
    <use
       x="0"
       y="0"
       inkscape:tiled-clone-of="#path3759"
       xlink:href="#path3759"
       transform="matrix(0.41457266,0,0,0.41457266,172.44692,132.27903)"
       id="use5125"
       style="fill:#ff939a;stroke:#ff939a"
       width="215.63812"
       height="284.4588" />
    <use
       x="0"
       y="0"
       inkscape:tiled-clone-of="#path3759"
       xlink:href="#path3759"
       transform="matrix(1.252659,0,0,1.252659,423.02878,12.508769)"
       id="use5127"
       style="fill:#02ffa9;stroke:#02ffa9"
       width="215.63812"
       height="284.4588" />
    <use
       x="0"
       y="0"
       inkscape:tiled-clone-of="#path3759"
       xlink:href="#path3759"
       transform="matrix(0.42859325,0,0,0.42859325,174.50302,119.42847)"
       id="use5129"
       style="fill:#6dff98;stroke:#6dff98"
       width="215.63812"
       height="284.4588" />
    <use
       x="0"
       y="0"
       inkscape:tiled-clone-of="#path3759"
       xlink:href="#path3759"
       transform="matrix(1.3247451,0,0,1.3247451,475.21816,-7.0738822)"
       id="use5131"
       style="fill:#ffd802;stroke:#ffd802"
       width="215.63812"
       height="284.4588" />
    <use
       x="0"
       y="0"
       inkscape:tiled-clone-of="#path3759"
       xlink:href="#path3759"
       transform="matrix(0.79330094,0,0,0.79330094,409.02353,56.41738)"
       id="use5133"
       style="fill:#02ff6e;stroke:#02ff6e"
       width="215.63812"
       height="284.4588" />
    <use
       x="0"
       y="0"
       inkscape:tiled-clone-of="#path3759"
       xlink:href="#path3759"
       transform="matrix(0.84989489,0,0,0.84989489,454.33097,38.199595)"
       id="use5135"
       style="fill:#ff1e25;stroke:#ff1e25"
       width="215.63812"
       height="284.4588" />
    <use
       x="0"
       y="0"
       inkscape:tiled-clone-of="#path3759"
       xlink:href="#path3759"
       transform="matrix(0.9354502,0,0,0.9354502,399.46369,-63.51582)"
       id="use5137"
       style="fill:#9902ff;stroke:#9902ff"
       width="215.63812"
       height="284.4588" />
    <use
       x="0"
       y="0"
       inkscape:tiled-clone-of="#path3759"
       xlink:href="#path3759"
       transform="matrix(0.50987098,0,0,0.50987098,358.88408,-99.627681)"
       id="use5139"
       style="fill:#c9ff3c;stroke:#c9ff3c"
       width="215.63812"
       height="284.4588" />
    <use
       x="0"
       y="0"
       inkscape:tiled-clone-of="#path3759"
       xlink:href="#path3759"
       transform="matrix(0.77678694,0,0,0.77678694,416.21908,33.996464)"
       id="use5141"
       style="fill:#a6ff02;stroke:#a6ff02"
       width="215.63812"
       height="284.4588" />
    <use
       x="0"
       y="0"
       inkscape:tiled-clone-of="#path3759"
       xlink:href="#path3759"
       transform="matrix(1.2590935,0,0,1.2590935,331.23338,75.390926)"
       id="use5143"
       style="fill:#02ffc2;stroke:#02ffc2"
       width="215.63812"
       height="284.4588" />
    <use
       x="0"
       y="0"
       inkscape:tiled-clone-of="#path3759"
       xlink:href="#path3759"
       transform="matrix(0.78780783,0,0,0.78780783,360.11998,-46.051034)"
       id="use5145"
       style="fill:#17ff02;stroke:#17ff02"
       width="215.63812"
       height="284.4588" />
    <use
       x="0"
       y="0"
       inkscape:tiled-clone-of="#path3759"
       xlink:href="#path3759"
       transform="matrix(0.53506219,0,0,0.53506219,338.61004,-49.132718)"
       id="use5147"
       style="fill:#02ffad;stroke:#02ffad"
       width="215.63812"
       height="284.4588" />
    <use
       x="0"
       y="0"
       inkscape:tiled-clone-of="#path3759"
       xlink:href="#path3759"
       transform="matrix(0.93855565,0,0,0.93855565,346.37941,49.949847)"
       id="use5149"
       style="fill:#02ff90;stroke:#02ff90"
       width="215.63812"
       height="284.4588" />
    <use
       x="0"
       y="0"
       inkscape:tiled-clone-of="#path3759"
       xlink:href="#path3759"
       transform="matrix(1.0802722,0,0,1.0802722,405.51394,16.149085)"
       id="use5151"
       style="fill:#027eff;stroke:#027eff"
       width="215.63812"
       height="284.4588" />
    <use
       x="0"
       y="0"
       inkscape:tiled-clone-of="#path3759"
       xlink:href="#path3759"
       transform="matrix(0.88919297,0,0,0.88919297,323.87905,-4.1016087)"
       id="use5153"
       style="fill:#ff0204;stroke:#ff0204"
       width="215.63812"
       height="284.4588" />
    <use
       x="0"
       y="0"
       inkscape:tiled-clone-of="#path3759"
       xlink:href="#path3759"
       transform="matrix(0.9810777,0,0,0.9810777,268.9352,92.633053)"
       id="use5155"
       style="fill:#fff102;stroke:#fff102"
       width="215.63812"
       height="284.4588" />
    <use
       x="0"
       y="0"
       inkscape:tiled-clone-of="#path3759"
       xlink:href="#path3759"
       transform="matrix(1.1645325,0,0,1.1645325,464.59398,29.641488)"
       id="use5157"
       style="fill:#02ff42;stroke:#02ff42"
       width="215.63812"
       height="284.4588" />
    <use
       x="0"
       y="0"
       inkscape:tiled-clone-of="#path3759"
       xlink:href="#path3759"
       transform="matrix(0.81659828,0,0,0.81659828,283.02713,61.545856)"
       id="use5159"
       style="fill:#02ffa8;stroke:#02ffa8"
       width="215.63812"
       height="284.4588" />
    <use
       x="0"
       y="0"
       inkscape:tiled-clone-of="#path3759"
       xlink:href="#path3759"
       transform="matrix(1.1716842,0,0,1.1716842,368.96748,30.853952)"
       id="use5161"
       style="fill:#ff0251;stroke:#ff0251"
       width="215.63812"
       height="284.4588" />
    <use
       x="0"
       y="0"
       inkscape:tiled-clone-of="#path3759"
       xlink:href="#path3759"
       transform="matrix(0.89883048,0,0,0.89883048,293.84512,45.141401)"
       id="use5163"
       style="fill:#7902ff;stroke:#7902ff"
       width="215.63812"
       height="284.4588" />
    <use
       x="0"
       y="0"
       inkscape:tiled-clone-of="#path3759"
       xlink:href="#path3759"
       transform="matrix(0.79891581,0,0,0.79891581,431.86064,1.1441087)"
       id="use5165"
       style="fill:#0244ff;stroke:#0244ff"
       width="215.63812"
       height="284.4588" />
    <use
       x="0"
       y="0"
       inkscape:tiled-clone-of="#path3759"
       xlink:href="#path3759"
       transform="matrix(1.5851876,0,0,1.5851876,489.47105,-23.746864)"
       id="use5167"
       style="fill:#ff1602;stroke:#ff1602"
       width="215.63812"
       height="284.4588" />
    <use
       x="0"
       y="0"
       inkscape:tiled-clone-of="#path3759"
       xlink:href="#path3759"
       transform="matrix(0.75376676,0,0,0.75376676,396.54742,25.538449)"
       id="use5169"
       style="fill:#024aff;stroke:#024aff"
       width="215.63812"
       height="284.4588" />
    <use
       x="0"
       y="0"
       inkscape:tiled-clone-of="#path3759"
       xlink:href="#path3759"
       transform="matrix(1.3083153,0,0,1.3083153,456.81796,-8.1190474)"
       id="use5171"
       style="fill:#5d02ff;stroke:#5d02ff"
       width="215.63812"
       height="284.4588" />
    <use
       x="0"
       y="0"
       inkscape:tiled-clone-of="#path3759"
       xlink:href="#path3759"
       transform="matrix(1.2538486,0,0,1.2538486,448.25637,41.552609)"
       id="use5173"
       style="fill:#025dff;stroke:#025dff"
       width="215.63812"
       height="284.4588" />
    <use
       x="0"
       y="0"
       inkscape:tiled-clone-of="#path3759"
       xlink:href="#path3759"
       transform="matrix(1.216288,0,0,1.216288,649.93882,-110.82716)"
       id="use5175"
       style="fill:#4e02ff;stroke:#4e02ff"
       width="215.63812"
       height="284.4588" />
    <use
       x="0"
       y="0"
       inkscape:tiled-clone-of="#path3759"
       xlink:href="#path3759"
       transform="matrix(0.59585135,0,0,0.59585135,348.56233,-91.387426)"
       id="use5177"
       style="fill:#df02ff;stroke:#df02ff"
       width="215.63812"
       height="284.4588" />
    <use
       x="0"
       y="0"
       inkscape:tiled-clone-of="#path3759"
       xlink:href="#path3759"
       transform="matrix(0.98771563,0,0,0.98771563,283.00642,96.996564)"
       id="use5179"
       style="fill:#ff02a0;stroke:#ff02a0"
       width="215.63812"
       height="284.4588" />
    <use
       x="0"
       y="0"
       inkscape:tiled-clone-of="#path3759"
       xlink:href="#path3759"
       transform="matrix(0.48385341,0,0,0.48385341,202.3146,80.88307)"
       id="use5181"
       style="fill:#ff0302;stroke:#ff0302"
       width="215.63812"
       height="284.4588" />
    <use
       x="0"
       y="0"
       inkscape:tiled-clone-of="#path3759"
       xlink:href="#path3759"
       transform="matrix(1.3664683,0,0,1.3664683,367.54828,53.094377)"
       id="use5183"
       style="fill:#ff232a;stroke:#ff232a"
       width="215.63812"
       height="284.4588" />
  </g>
  <g
     inkscape:groupmode="layer"
     id="layer2"
     inkscape:label="Lines"
     style="display:inline"
     transform="translate(14.46252,264.03336)" />
</svg>
